<svg width="277" height="51" viewBox="0 0 277 51" fill="none" xmlns="http://www.w3.org/2000/svg"><path d="M47.172 28.595c0 13.296-9.325 22.16-23.037 22.16C9.325 50.201 0 40.783 0 25.825S9.325.895 24.135.895c11.518 0 20.295 6.094 21.94 15.512h-7.679c-1.645-5.54-7.68-9.418-14.261-9.418-9.874 0-16.456 7.202-16.456 18.282s6.582 18.282 17.004 18.282c8.776 0 15.359-5.54 15.907-13.85H20.295v-5.54h26.329c.548 1.662.548 2.77.548 4.432ZM65.274 29.703l12.615-1.108v-1.662c0-4.432-3.29-6.648-8.227-6.648s-8.228 2.77-7.68 6.648h-7.13c0-7.756 5.485-12.188 14.81-12.188 8.776 0 14.261 4.432 14.261 12.742v22.714H77.89l-.548-6.648c-1.645 4.432-6.582 7.202-12.616 7.202-6.582 0-10.97-3.878-10.97-9.972.548-6.648 4.388-9.972 11.519-11.08Zm2.194 14.958c6.033 0 10.421-3.878 10.421-9.972v-2.216l-10.97 1.662c-3.84.554-5.485 2.77-5.485 5.54-.548 3.324 2.194 4.986 6.034 4.986ZM144.26 26.933v22.714h-7.131v-22.16c0-4.986-2.743-7.202-6.582-7.202-4.937 0-7.68 3.878-7.68 9.418v19.39h-6.582V28.595c0-5.54-2.194-7.756-6.582-7.756-4.937 0-7.679 3.324-7.679 8.864v19.944h-6.582V15.299h6.033l.549 4.432c2.194-3.324 5.485-4.986 9.873-4.986 4.937 0 8.776 2.216 9.873 6.648 1.646-3.878 6.034-6.648 10.971-6.648 7.13 0 11.519 4.432 11.519 12.188ZM186.495 39.675c-1.646 6.648-8.228 11.08-16.456 11.08-10.97 0-18.101-7.202-18.101-17.728 0-10.526 7.131-17.728 17.553-17.728 9.873 0 16.455 6.094 16.455 15.512 0 1.108 0 1.662-.548 2.77h-26.329v.554c0 6.648 4.388 10.526 10.97 10.526 4.937 0 8.228-2.216 9.325-4.986h7.131Zm-27.426-11.08h19.747c0-4.432-3.84-8.31-9.325-8.31-5.485 0-9.325 3.324-10.422 8.31ZM236.41 8.651C232.022 3.665 225.44.895 218.857.895c-13.712 0-24.683 11.08-24.683 24.93s10.971 24.93 24.683 24.93c7.68 0 14.262-3.324 18.65-8.864l-18.65-16.066L236.41 8.651ZM246.283 15.3h6.034l.548 5.54c2.194-3.879 6.583-6.095 11.519-6.095 8.228 0 12.616 4.986 12.616 13.296v21.606h-7.131V29.149c0-5.54-3.291-8.31-7.679-8.31-5.485 0-9.325 3.878-9.325 10.526v18.282h-6.582V15.299Z" fill="#FE142F"/></svg>